# xmcd CD database file
#
# Track frame offsets:
#	183
#	15838
#	26405
#	38633
#	51153
#	63155
#	76205
#	88720
#	98630
#	112215
#	123748
#	136508
#	146103
#	157503
#	168155
#
# Disc length: 2391 seconds
#
# Revision: 3
# Processed by: cddbd v1.5.2PL0 Copyright (c) Steve Scherf et al.
# Submitted via: CDex 1.51
#
DISCID=ad09550f
DTITLE=Nat King Cole - En Espanol (Disk 2)
DYEAR=2005
DGENRE=Jazz
TTITLE0=Ansiedad
TTITLE1=Perfidia
TTITLE2=Maria Elena
TTITLE3=Solamente una vez
TTITLE4=Te quiero dijiste
TTITLE5=Adio Mariquita Linda
TTITLE6=Quizas quizas quizas
TTITLE7=Aquellos ojos verdes
TTITLE8=No me platiques
TTITLE9=Nadie me ama
TTITLE10=Acercate mas
TTITLE11=Tres palabras
TTITLE12=Noche de ronda
TTITLE13=Suas maos
TTITLE14=Vaya con dios
EXTD=YEAR: 2005
EXTT0=
EXTT1=
EXTT2=
EXTT3=
EXTT4=
EXTT5=
EXTT6=
EXTT7=
EXTT8=
EXTT9=
EXTT10=
EXTT11=
EXTT12=
EXTT13=
EXTT14=
PLAYORDER=
